<svg width="30" height="30" viewBox="0 0 30 30" fill="none" xmlns="http://www.w3.org/2000/svg">
<g clip-path="url(#clip0_11_254)">
<path d="M0.00375366 15C0.00375366 23.0273 6.50766 29.5312 14.535 29.5312C22.5623 29.5312 29.0663 23.0273 29.0663 15C29.0663 6.97266 22.5623 0.46875 14.535 0.46875C6.50766 0.46875 0.00375366 6.97266 0.00375366 15ZM11.7225 12.1875C11.7225 13.2246 10.8846 14.0625 9.8475 14.0625C8.81039 14.0625 7.9725 13.2246 7.9725 12.1875C7.9725 11.1504 8.81039 10.3125 9.8475 10.3125C10.8846 10.3125 11.7225 11.1504 11.7225 12.1875ZM21.0096 13.1543C20.1424 12.3809 18.3026 12.3809 17.4354 13.1543L16.8788 13.6523C16.3924 14.0859 15.6131 13.6758 15.7186 13.0195C15.953 11.543 17.7225 10.5527 19.2284 10.5527C20.7342 10.5527 22.5038 11.543 22.7381 13.0195C22.8377 13.6699 22.0702 14.0918 21.578 13.6523L21.0096 13.1543ZM9.24985 19.0898C10.5623 20.666 12.4842 21.5625 14.535 21.5625C16.5858 21.5625 18.5077 20.6602 19.8202 19.0898C20.617 18.1406 22.0526 19.3359 21.2616 20.291C19.5916 22.2891 17.1424 23.4375 14.535 23.4375C11.9276 23.4375 9.47836 22.2891 7.80844 20.2852C7.01743 19.3301 8.46469 18.1348 9.24985 19.0898Z" fill="#8362C1"/>
</g>
<defs>
<clipPath id="clip0_11_254">
<rect width="29.07" height="30" fill="white"/>
</clipPath>
</defs>
</svg>
